<?xml version="1.0" encoding="UTF-8"?>
<svg id="Layer_2" data-name="Layer 2" xmlns="http://www.w3.org/2000/svg" viewBox="0 0 150 130">
  <defs>
    <style>
      .cls-1 {
        fill: #231f20;
      }

      .cls-1, .cls-2 {
        stroke-width: 0px;
      }

      .cls-2 {
        fill: #001423;
      }
    </style>
  </defs>
  <g id="Layer_1-2" data-name="Layer 1">
    <g>
      <g>
        <polygon class="cls-1" points="50.54 0 0 61.46 53.84 61.46 107.38 0 50.54 0"/>
        <polygon class="cls-1" points="0 67.13 51.07 130 107.38 130 53.69 67.13 0 67.13"/>
        <polygon class="cls-1" points="112.95 1.7 87.21 30.73 98.72 47.3 150 47.3 112.95 1.7"/>
        <polygon class="cls-1" points="150 81.77 98.72 81.77 87.21 98.57 112.74 128.21 150 81.77"/>
      </g>
      <path class="cls-2" d="m132.64,63.12c-.29-.49-.29-.99,0-1.48.29-.49.71-.73,1.27-.72h14.99v-2.64h-14.99c-1.11.01-2.04.42-2.82,1.23-.77.81-1.16,1.77-1.16,2.88s.39,2.08,1.16,2.88c.77.81,1.71,1.21,2.82,1.23h10.96c.56-.01.98.22,1.27.71.14.24.21.49.21.75s-.07.51-.21.73c-.29.5-.71.74-1.27.73h-14.99v2.64h14.99c1.11-.01,2.04-.42,2.82-1.22.77-.8,1.16-1.76,1.16-2.88s-.39-2.09-1.16-2.88c-.77-.8-1.71-1.21-2.82-1.24h-10.96c-.56.01-.98-.23-1.27-.72Zm-10.12-2.2c.4.01.73.16.99.45.27.28.4.62.4,1.02s-.13.74-.4,1.02c-.27.28-.6.43-.99.43h-13.37v8.22h14.99c.93,0,1.75-.29,2.48-.86.72-.58,1.2-1.32,1.43-2.23.23-.91.16-1.79-.2-2.65-.37-.86-.96-1.51-1.78-1.96.34-.61.51-1.27.51-1.98-.01-1.12-.41-2.09-1.2-2.89-.79-.8-1.74-1.21-2.86-1.21h-13.37v2.64h13.37Zm2.89,6.29c.14.24.2.49.2.75s-.07.51-.2.73c-.29.5-.71.74-1.27.73h-12.39v-2.92h12.39c.56-.01.98.22,1.27.71Zm-17.75,4.85l-7.84-13.78h-3.46l-7.82,13.78h3.01l6.55-11.54,6.55,11.54h3.01Zm-35.01-13.78v13.78h15.36v-2.64h-12.76v-11.14h-2.6Z"/>
    </g>
  </g>
</svg>