<?xml version="1.0" encoding="UTF-8"?>
<svg id="Layer_2" data-name="Layer 2" xmlns="http://www.w3.org/2000/svg" viewBox="0 0 456.82 77.55">
  <defs>
    <style>
      .cls-1 {
        fill: #fff;
        stroke-width: 0px;
      }
    </style>
  </defs>
  <g id="Layer_1-2" data-name="Layer 1">
    <g>
      <g>
        <path class="cls-1" d="m230.56,61.23c-.52-.9-.52-1.8,0-2.7.52-.9,1.29-1.34,2.32-1.31h27.35v-4.83h-27.35c-2.02.03-3.73.77-5.14,2.24-1.41,1.47-2.11,3.22-2.11,5.26s.7,3.79,2.11,5.26c1.41,1.47,3.12,2.22,5.14,2.24h19.99c1.02-.02,1.79.41,2.32,1.29.25.43.38.89.38,1.37s-.12.92-.38,1.33c-.52.91-1.29,1.36-2.32,1.33h-27.35v4.83h27.35c2.02-.02,3.73-.77,5.14-2.22,1.41-1.46,2.11-3.21,2.11-5.26s-.71-3.81-2.11-5.26c-1.41-1.46-3.12-2.21-5.14-2.26h-19.99c-1.02.03-1.79-.41-2.32-1.31Zm-18.46-4.01c.72.03,1.33.3,1.81.82.49.52.73,1.14.73,1.86s-.24,1.34-.73,1.86c-.49.52-1.09.78-1.81.78h-24.4v15.01h27.35c1.69,0,3.2-.53,4.52-1.58,1.32-1.05,2.19-2.41,2.62-4.07.42-1.66.3-3.27-.37-4.84-.67-1.57-1.76-2.76-3.25-3.57.62-1.11.93-2.32.93-3.61-.03-2.05-.75-3.81-2.19-5.28-1.43-1.47-3.17-2.2-5.21-2.2h-24.4v4.83h24.4Zm4.27,11.48c.25.43.37.89.37,1.37s-.12.92-.37,1.33c-.52.91-1.3,1.36-2.32,1.33h-22.61v-5.32h22.61c1.02-.02,1.79.41,2.32,1.29Zm-31.4,8.85l-14.31-25.16h-6.32l-14.27,25.16h5.49l11.96-21.05,11.96,21.05h5.49Zm-64.9-25.16v25.16h28.03v-4.83h-23.28v-20.33h-4.75Z"/>
        <g>
          <polygon class="cls-1" points="28.98 1.88 0 36.98 30.87 36.98 61.57 1.88 28.98 1.88"/>
          <polygon class="cls-1" points="0 40.22 29.28 76.12 61.57 76.12 30.79 40.22 0 40.22"/>
          <polygon class="cls-1" points="64.77 2.85 50.01 19.43 56.61 28.9 86.01 28.9 64.77 2.85"/>
          <polygon class="cls-1" points="86.01 48.58 56.61 48.58 50.01 58.17 64.65 75.1 86.01 48.58"/>
        </g>
      </g>
      <g>
        <polygon class="cls-1" points="431.09 23.77 446.22 37.73 456.82 37.73 436.42 18.87 456.82 0 446.22 0 431.09 13.96 415.96 0 405.36 0 425.77 18.87 405.36 37.73 415.96 37.73 431.09 23.77"/>
        <polygon class="cls-1" points="348.64 37.73 355.75 37.73 355.75 5.93 389.83 37.73 400.71 37.73 400.71 0 393.59 0 393.59 31.81 359.51 0 348.64 0 348.64 37.73"/>
        <polygon class="cls-1" points="342.95 22.51 342.95 15.22 290.99 15.22 290.99 37.73 342.95 37.73 342.95 30.5 298.11 30.5 298.11 22.51 342.95 22.51"/>
        <rect class="cls-1" x="290.99" width="51.96" height="7.24"/>
        <polygon class="cls-1" points="286.34 0 275.75 0 260.61 13.96 245.48 0 234.88 0 255.29 18.87 234.88 37.73 245.48 37.73 286.34 0"/>
        <path class="cls-1" d="m219.1,25.54c1.79-.46,3.38-1.19,4.76-2.19,1.38-1.01,2.48-2.15,3.28-3.42.8-1.27,1.37-2.66,1.71-4.16.34-1.5.41-2.98.22-4.45-.19-1.46-.65-2.88-1.4-4.25s-1.71-2.57-2.89-3.62c-1.18-1.04-2.67-1.88-4.48-2.51-1.81-.63-3.82-.94-6.03-.94h-37.05v7.24h37.05c1.64,0,3.08.29,4.32.85,1.23.57,2.12,1.29,2.66,2.17.54.87.81,1.81.81,2.79s-.27,1.92-.81,2.79c-.54.88-1.43,1.6-2.66,2.17-1.23.57-2.67.85-4.32.85h-37.05v18.87h7.12v-11.63h25.56l10.48,11.63h9.7l-10.99-12.2Z"/>
        <path class="cls-1" d="m124.12,4.47c-2.93,2.98-4.4,6.56-4.4,10.74v7.3c0,4.18,1.47,7.76,4.4,10.74,2.93,2.98,6.45,4.47,10.57,4.47h22.14,0,14.85v-7.24h-37c-2.17,0-4.01-.78-5.52-2.34-1.51-1.56-2.29-3.44-2.33-5.64v-7.24c.04-2.2.81-4.08,2.33-5.64,1.51-1.56,3.35-2.34,5.52-2.34h37V0h-37c-4.11,0-7.63,1.49-10.57,4.47Z"/>
      </g>
    </g>
  </g>
</svg>